<svg width="22" height="24" viewBox="0 0 22 24" fill="none" xmlns="http://www.w3.org/2000/svg">
<path d="M14.243 9.172L17.329 8.4C17.5866 8.33566 17.8224 8.20411 18.0125 8.01879C18.2026 7.83348 18.3401 7.60103 18.411 7.3452C18.4818 7.08936 18.4836 6.8193 18.4159 6.56258C18.3483 6.30587 18.2137 6.07171 18.026 5.884L15.81 3.66701C15.6367 3.49354 15.4234 3.36522 15.189 3.29329C14.9546 3.22135 14.7061 3.20799 14.4653 3.25437C14.2245 3.30076 13.9987 3.40547 13.8078 3.55935C13.6168 3.71322 13.4665 3.91156 13.37 4.13701L12.122 7.05001M5.05 11.293L9.293 7.05001C9.66806 6.67506 10.1767 6.46443 10.707 6.46443C11.2373 6.46443 11.7459 6.67506 12.121 7.05001L14.95 9.88C15.3249 10.2551 15.5356 10.7637 15.5356 11.294C15.5356 11.8243 15.3249 12.3329 14.95 12.708L10.707 16.951C10.3319 17.3259 9.82333 17.5366 9.293 17.5366C8.76268 17.5366 8.25406 17.3259 7.879 16.951L5.05 14.12C4.67506 13.7449 4.46443 13.2363 4.46443 12.706C4.46443 12.1757 4.67506 11.6671 5.05 11.292V11.293Z" stroke="black" stroke-width="2" stroke-linecap="round" stroke-linejoin="round"/>
<path d="M7.172 16.243L6.4 19.329C6.33566 19.5866 6.20411 19.8224 6.01879 20.0125C5.83348 20.2026 5.60103 20.3401 5.3452 20.411C5.08936 20.4819 4.8193 20.4836 4.56258 20.4159C4.30587 20.3483 4.07171 20.2137 3.884 20.026L1.66701 17.81C1.49354 17.6367 1.36522 17.4234 1.29329 17.189C1.22135 16.9546 1.20799 16.7061 1.25437 16.4653C1.30076 16.2245 1.40547 15.9987 1.55935 15.8078C1.71322 15.6168 1.91156 15.4665 2.13701 15.37L5.05001 14.122" stroke="black" stroke-width="2" stroke-linecap="round" stroke-linejoin="round"/>
</svg>
